 http://www.imdb.com/title/tt1067106/

General
Complete name: E:  BDRip 720p  A.Christmas.Carol.2009.BDRip.720p.Rus.Eng.Subs.x264-DIMENSION.mkv
Format: Matroska
File size: 4.63 GiB
Duration: 1h 35mn
Overall bit rate: 6917 Kbps
Encoded date: UTC 2010-07-25 06:25:35
Writing application: mkvmerge v3.4.0 ('Rapunzel') built on May 15, 2010 9:38:20
Writing library: libebml v0.8.0 + libmatroska v0.9.0

Video
ID: 1
Format: AVC
Format / Info: Advanced Video Codec
Format profile: High@L3.1
Format settings, CABAC: Yes
Format settings, ReFrames: 7 frames
Muxing mode: Container profile = Unknown@3.1
Codec ID: V_MPEG4/ISO/AVC
Duration: 1h 35mn
Bit rate: 5,022 Kbps
Width: 1280 pixels
Height: 528 pixels
Display aspect ratio: 2.40:1
Frame rate: 23.976 fps
Color space: YUV
Chroma subsampling: 4:2:0
Bit depth: 8 bits
Scan type: Progressive
Bits / (Pixel * Frame): 0.310
Stream size: 3.27 GiB (71%)
Title: x264-DIMENSION
Writing library: x264 core 100 r1659 57b2e56
Encoding settings: cabac = 1 / ref = 7 / deblock = 1: -1:1 / analyse = 0x3: 0x113 / me = umh / subme = 9 / psy = 1 / psy_rd = 1.02:0.00 / mixed_ref = 1 / me_range = 20 / chroma_me = 1 / trellis = 1 / 8x8dct = 1 / cqm = 0 / deadzone = 21,11 / fast_pskip = 0 / chroma_qp_offset =- 2 / threads = 6 / sliced_threads = 0 / nr = 0 / decimate = 1 / interlaced = 0 / constrained_intra = 0 / bframes = 3 / b_pyramid = 2 / b_adapt = 2 / b_bias = 0 / direct = 3 / weightb = 1 / open_gop = 0 / weightp = 2 / keyint = 250 / keyint_min = 25 / scenecut = 40 / intra_refresh = 0 / rc_lookahead = 40 / rc = 2pass / mbtree = 1 / bitrate = 5022 / ratetol = 1.0 / qcomp = 0.60 / qpmin = 10 / qpmax = 51 / qpstep = 4 / cplxblur = 20.0 / qblur = 0.5 / ip_ratio = 1.40 / aq = 1:1.10
Language: English

Audio # 1
ID: 2
Format: AC-3
Format / Info: Audio Coding 3
Mode extension: CM (complete main)
Codec ID: A_AC3
Duration: 1h 35mn
Bit rate mode: Constant
Bit rate: 384 Kbps
Channel (s): 6 channels
Channel positions: Front: LCR, Side: LR, LFE
Sampling rate: 48.0 KHz
Stream size: 263 MiB (6%)
Title: AC3; 384 Kbps@5.1 ch - (MVO) ELEKTRI4KA
Language: Russian

Audio # 2
ID: 3
Format: DTS
Format / Info: Digital Theater Systems
Codec ID: A_DTS
Duration: 1h 35mn
Bit rate mode: Constant
Bit rate: 1510 Kbps
Channel (s): 6 channels
Channel positions: Front: LCR, Side: LR, LFE
Sampling rate: 48.0 KHz
Bit depth: 24 bits
Stream size: 1.01 GiB (22%)
Title: DTS; 1509 Kbps@5.1 ch
Language: English

Text # 1
ID: 4
Format: UTF-8
Codec ID: S_TEXT/UTF8
Codec ID / Info: UTF-8 Plain Text
Title: (Full) thx Anatava
Language: Russian

Text # 2
ID: 5
Format: UTF-8
Codec ID: S_TEXT/UTF8
Codec ID / Info: UTF-8 Plain Text
Title: (Full)
Language: English